<svg xmlns="http://www.w3.org/2000/svg" xml:space="preserve" width="274.452" height="274.452" viewBox="0 0 72.615 72.615" style="overflow:visible;">
  <style>
    @media (prefers-color-scheme: light) {
      :root {
        --fg: #1f1a16;
        --bg: #fdfacb;
      }
    }
    @media (prefers-color-scheme: dark) {
      :root {
        --fg: #fdfacb;
        --bg: #1f1a16;
      }
    }
  </style>
  <g transform="translate(-1716.352 -3511.815)">
  <rect width="69.467" height="69.467" x="1717.926" y="3513.389" rx="0" ry="0" style="fill:var(--bg);fill-opacity:1;stroke:var(--fg);stroke-width:3.14859;stroke-linecap:square;stroke-dasharray:none;stroke-opacity:1;paint-order:fill markers stroke"/><g style="fill:var(--fg)" transform="translate(-5495.456 -10448.651) scale(4.29767)"><path d="M1684.039 3248.819c-.412 1.458-.91 2.888-1.41 4.318-.721 2.008-1.44 4.017-2.17 6.022a336.29 336.29 0 0 0-.884 2.579l4.118.127c.255-.86.52-1.717.812-2.565.726-2.011 1.466-4.016 2.2-6.025.519-1.445 1.018-2.898 1.567-4.333z" style="fill:var(--fg);fill-opacity:1;stroke:none;stroke-width:.566941;stroke-linecap:square;stroke-linejoin:miter;stroke-dasharray:none;stroke-dashoffset:0;stroke-opacity:1;paint-order:fill markers stroke"/><path d="M1689.44 3250.526c-.967 1.959-1.823 3.972-2.62 6.005-1.018 2.615-1.83 5.303-2.62 7.993-.333 1.203-.18.628-.464 1.722l4.384.102c.231-1.084.104-.514.39-1.707.708-2.692 1.51-5.362 2.544-7.949.835-2.034 1.717-4.065 2.872-5.941z" style="fill:var(--fg);fill-opacity:1;stroke:none;stroke-width:.602729;stroke-linecap:square;stroke-linejoin:miter;stroke-dasharray:none;stroke-dashoffset:0;stroke-opacity:1;paint-order:fill markers stroke"/><path d="M1693.22 3257.662c-.237-.39-.313-.81-.393-1.225-.051-.316-.029-.161-.064-.465l-8.52.078c.09.294.05.141.114.46.082.414.149.83.123 1.248z" style="fill:var(--fg);fill-opacity:1;stroke:none;stroke-width:.478629;stroke-linecap:round;stroke-linejoin:round;stroke-dasharray:none;stroke-dashoffset:0;stroke-opacity:1;paint-order:fill markers stroke"/></g></g>
</svg>