<?xml version="1.0" encoding="UTF-8" standalone="no"?>
<svg
   id="emoji"
   viewBox="0 0 72 72"
   version="1.1"
   sodipodi:docname="favicon.svg"
   inkscape:version="1.2.1 (8a69933317, 2022-10-28, custom)"
   xmlns:inkscape="http://www.inkscape.org/namespaces/inkscape"
   xmlns:sodipodi="http://sodipodi.sourceforge.net/DTD/sodipodi-0.dtd"
   xmlns="http://www.w3.org/2000/svg"
   xmlns:svg="http://www.w3.org/2000/svg">
  <defs
     id="defs55" />
  <sodipodi:namedview
     id="namedview53"
     pagecolor="#505050"
     bordercolor="#eeeeee"
     borderopacity="1"
     inkscape:showpageshadow="0"
     inkscape:pageopacity="0"
     inkscape:pagecheckerboard="0"
     inkscape:deskcolor="#505050"
     showgrid="false"
     inkscape:zoom="8.1458333"
     inkscape:cx="7.9795396"
     inkscape:cy="28.787724"
     inkscape:window-width="2506"
     inkscape:window-height="1376"
     inkscape:window-x="54"
     inkscape:window-y="241"
     inkscape:window-maximized="1"
     inkscape:current-layer="emoji" />
  <!--
    Source: OpenMoji - https://openmoji.org/library/emoji-1F409/
    Author: Selina Bauder - https://openmoji.org/library/#author=Selina%20Bauder
    License: CC BY-SA 4.0 - https://creativecommons.org/licenses/by-sa/4.0/
  -->
  <g
     id="hair" />
  <g
     id="skin" />
  <g
     id="skin-shadow" />
  <g
     id="g228"
     transform="matrix(2.010666,0,0,2.010666,-54.02487,-8.042664)">
    <g
       id="color">
      <path
         fill="#b1cc33"
         stroke="#b1cc33"
         stroke-linecap="round"
         stroke-linejoin="round"
         stroke-miterlimit="10"
         stroke-width="2"
         d="M 46,24 C 44.9167,23.4167 42,23 40.0833,23.0833 38.1667,23.1667 37,21 37,21 c -0.9,1.35 -0.315,2.7675 0.6007,3.9184 1.1508,1.4463 2.8225,2.3985 4.6286,2.7916 C 47.7267,28.9066 48,30 48,30 l -0.1945,2.8581 c 3.8914,1.5502 4.6086,4.4578 4.8891,5.4505 l -4.3577,0.0076 c 3.4697,2.4416 4.3264,7.3677 4.3264,7.3677 L 50,46 c -0.1667,3 -3.5,7.9167 -8,11 -4.5,3.0833 -2.25,7.75 -2.25,7.75 C 39.75,64.75 34,58 42,51 50,44 42.5833,36 42.5833,36 44.1666,48 38.1666,50.5833 38.1666,50.5833 30.3333,52.1667 29.75,47.25 29.75,47.25 l 3.75,1.4167 C 42,49.3334 33.6667,37.5834 33.6667,37.5834 24.3333,32.1667 20,40 19.5833,38.5833 c -0.4167,-1.4167 1.5833,-4.75 1.5833,-4.75 C 19.3333,32.6666 10.3333,36.9166 10.3333,36.9166 9.6667,35.8333 17.5833,31 17.5833,31 16.1667,29 10,29 10,29 c 0,0 4,-6 14.1667,-2.8333 L 37,34 c 0,0 -6.7368,-6.8764 -8,-12 -1.2801,-5.1922 2.6184,-8.4931 2,-8 L 27.6694,9.6681 c 1.9432,-0.5218 3.5669,0.7807 4.1322,1.2131 l -1.578,-5.122 c 2.5024,0.1211 3.7895,2.1179 4.2473,2.7901 L 36,5 39.9167,8.5 c 0,0 2.0833,-1.5 3,0.25 0.9166,1.75 3.0833,5.25 6.1666,5.8333 3.0833,0.5833 1.5,3.9167 1.5,3.9167 C 50.5833,18.5 46,17 44,17 42,17 41.25,18.5833 41.25,18.5833 41.25,18.5833 41,18 45,20 c 4,2 1,4 1,4"
         id="path25" />
      <path
         fill="#ea5a47"
         stroke="none"
         d="m 50,21 c 0,0 4,2 3,4 0,0 3.3333,0 4.1667,2.5 C 58,30 63,28 63,28 l -4.3333,-2.1667 c 0,0 0,-2.8333 -1.3333,-2.8333 C 56,23 53,20 50,21 Z"
         id="path27" />
    </g>
    <g
       id="line">
      <path
         fill="none"
         stroke="#000000"
         stroke-linecap="round"
         stroke-linejoin="round"
         stroke-miterlimit="10"
         stroke-width="2"
         d="m 52.6632,45.6838 c 0,0 -0.8567,-4.9261 -4.3264,-7.3677"
         id="path33" />
      <path
         fill="none"
         stroke="#000000"
         stroke-linecap="round"
         stroke-linejoin="round"
         stroke-miterlimit="10"
         stroke-width="2"
         d="M 52.6945,38.3086 C 52.414,37.3159 51.6968,34.4083 47.8054,32.8581"
         id="path35" />
      <path
         fill="none"
         stroke="#000000"
         stroke-linecap="round"
         stroke-linejoin="round"
         stroke-miterlimit="10"
         stroke-width="2"
         d="m 48,30 c 0,0 -0.2733,-1.0934 -5.7707,-2.29 -1.806,-0.3931 -3.4777,-1.3453 -4.6286,-2.7916 C 36.685,23.7675 36.1,22.35 37,21 c 0,0 1.1667,2.1667 3.0833,2.0833 C 42,23 44.9167,23.4167 46,24"
         id="path37" />
      <path
         fill="none"
         stroke="#000000"
         stroke-linecap="round"
         stroke-linejoin="round"
         stroke-miterlimit="10"
         stroke-width="2"
         d="m 46,24 c 0,0 3,-2 -1,-4 -4,-2 -3.75,-1.4167 -3.75,-1.4167 0,0 0.75,-1.5833 2.75,-1.5833 2,0 6.5833,1.5 6.5833,1.5 0,0 1.5833,-3.3333 -1.5,-3.9167 C 46,14 43.8333,10.5 42.9167,8.75 42,7 39.9167,8.5 39.9167,8.5 L 36,5"
         id="path39" />
      <path
         fill="none"
         stroke="#000000"
         stroke-linecap="round"
         stroke-linejoin="round"
         stroke-miterlimit="10"
         stroke-width="2"
         d="M 24.1667,26.1667 C 14,23 10,29 10,29 c 0,0 6.1667,0 7.5833,2 0,0 -7.9167,4.8333 -7.25,5.9167 0,0 9,-4.25 10.8333,-3.0833 0,0 -2,3.3333 -1.5833,4.75 0.4167,1.4167 4.75,-6.4167 14.0833,-1 0,0 8.3333,11.75 -0.1667,11.0833 L 29.75,47.25 c 0,0 0.5833,4.9167 8.4167,3.3333 0,0 6,-2.5833 4.4167,-14.5833 0,0 7.4167,8 -0.5833,15 -8,7 -2.25,13.75 -2.25,13.75 0,0 -2.2501,-4.6667 2.2499,-7.75 4.5,-3.0833 7.8333,-8 8,-11"
         id="path41" />
      <path
         fill="none"
         stroke="#000000"
         stroke-linecap="round"
         stroke-linejoin="round"
         stroke-miterlimit="10"
         stroke-width="2"
         d="m 31,14 c 0.6184,-0.4931 -3.2801,2.8078 -2,8 1.2632,5.1236 8,12 8,12"
         id="path43" />
      <path
         fill="none"
         stroke="#000000"
         stroke-linecap="round"
         stroke-linejoin="round"
         stroke-miterlimit="10"
         stroke-width="2"
         d="M 34.4709,8.5493 C 34.013,7.8771 32.726,5.8803 30.2236,5.7592"
         id="path45" />
      <path
         fill="none"
         stroke="#000000"
         stroke-linecap="round"
         stroke-linejoin="round"
         stroke-miterlimit="10"
         stroke-width="2"
         d="M 31.8016,10.8812 C 31.2363,10.4488 29.6126,9.1464 27.6694,9.6681"
         id="path47" />
      <path
         fill="none"
         stroke="#000000"
         stroke-linecap="round"
         stroke-linejoin="round"
         stroke-miterlimit="10"
         stroke-width="2"
         d="m 50,21 c 0,0 4,2 3,4 0,0 3.3333,0 4.1667,2.5 C 58,30 63,28 63,28 l -4.3333,-2.1667 c 0,0 0,-2.8333 -1.3333,-2.8333 C 56,23 53,20 50,21 Z"
         id="path49" />
    </g>
  </g>
</svg>
